# xmcd CD database file
#
# Track frame offsets:
#	187
#	27762
#	42145
#	57432
#	72402
#	88190
#	100160
#	121372
#	136265
#	156065
#
# Disc length: 2269 seconds
#
# Revision: 3
# Processed by: cddbd v1.5.1PL0 Copyright (c) Steve Scherf et al.
# Submitted via: CDex 1.51
#
DISCID=8208db0a
DTITLE=Paco De Lucia - (2)幻想
DYEAR=1969
DGENRE=Flamenco
TTITLE0=リナーレスの調べ（タランタス）
TTITLE1=私の霊感（アレグリアス）
TTITLE2=ルシアのグァヒーラス（グァヒーラス）
TTITLE3=祭りの日のショール
TTITLE4=エル・テンプル（ブレリアス）
TTITLE5=パナデロス・フラメンコス（パナデロス）
TTITLE6=月影のヘネラリーフェ（グラナディーナス）
TTITLE7=モゲールの祭り（ファンダンゴス・デ・ウェルバ）
TTITLE8=鉱夫のなげき（ロンデーニャ）
TTITLE9=妬いてばかり(ソレア)
EXTD=YEAR: 1969
EXTT0=
EXTT1=
EXTT2=
EXTT3=
EXTT4=
EXTT5=
EXTT6=
EXTT7=
EXTT8=
EXTT9=
PLAYORDER=
